{
    "asset": {
        "version": "2.0",
        "generator": "Open Asset Import Library (assimp v5.2.cf7d3637)"
    },
    "extensionsUsed": [
        "KHR_materials_volume",
        "FB_ngon_encoding"
    ],
    "accessors": [
        {
            "bufferView": 0,
            "byteOffset": 0,
            "componentType": 5126,
            "count": 162534,
            "type": "VEC3",
            "max": [
                0.9869629740715027,
                0.4865320026874542,
                0.9367740154266357
            ],
            "min": [
                -0.9917610287666321,
                -0.4858520030975342,
                -0.9387170076370239
            ]
        },
        {
            "bufferView": 1,
            "byteOffset": 0,
            "componentType": 5126,
            "count": 162534,
            "type": "VEC3",
            "max": [
                0.9999940395355225,
                0.9999350309371948,
                0.9999995231628418
            ],
            "min": [
                -0.9998112320899963,
                -0.9999475479125977,
                -0.9999710321426392
            ]
        },
        {
            "bufferView": 2,
            "byteOffset": 0,
            "componentType": 5126,
            "count": 162534,
            "type": "VEC2",
            "max": [
                0.94873046875,
                0.99951171875
            ],
            "min": [
                0.0005388259887695313,
                0.0005388259887695313
            ]
        },
        {
            "bufferView": 3,
            "byteOffset": 0,
            "componentType": 5125,
            "count": 162534,
            "type": "SCALAR",
            "max": [
                162533
            ],
            "min": [
                0
            ]
        }
    ],
    "buffers": [
        {
            "byteLength": 5851224,
            "uri": "result.bin"
        }
    ],
    "bufferViews": [
        {
            "buffer": 0,
            "byteOffset": 0,
            "byteLength": 1950408,
            "target": 34962
        },
        {
            "buffer": 0,
            "byteOffset": 1950408,
            "byteLength": 1950408,
            "target": 34962
        },
        {
            "buffer": 0,
            "byteOffset": 3900816,
            "byteLength": 1300272,
            "target": 34962
        },
        {
            "buffer": 0,
            "byteOffset": 5201088,
            "byteLength": 650136,
            "target": 34963
        }
    ],
    "images": [
        {
            "uri": "data:image/jpeg;base64,"
        }
    ],
    "materials": [
        {
            "name": "material",
            "pbrMetallicRoughness": {
                "baseColorTexture": {
                    "index": 0
                },
                "metallicFactor": 0.0,
                "roughnessFactor": 0.800000011920929
            },
            "doubleSided": true
        },
        {
            "name": "material"
        }
    ],
    "meshes": [
        {
            "name": "meshes[0]",
            "primitives": [
                {
                    "mode": 4,
                    "material": 0,
                    "indices": 3,
                    "attributes": {
                        "POSITION": 0,
                        "NORMAL": 1,
                        "TEXCOORD_0": 2
                    }
                }
            ]
        }
    ],
    "nodes": [
        {
            "name": "nodes[0]",
            "mesh": 0
        }
    ],
    "samplers": [
        {
            "magFilter": 9729,
            "minFilter": 9987
        }
    ],
    "scenes": [
        {
            "nodes": [
                0
            ]
        }
    ],
    "textures": [
        {
            "source": 0,
            "sampler": 0
        }
    ],
    "scene": 0
}