{
    "asset": {
        "version": "2.0",
        "generator": "Open Asset Import Library (assimp v5.4.0)"
    },
    "extensionsUsed": [
        "KHR_materials_volume",
        "FB_ngon_encoding"
    ],
    "accessors": [
        {
            "bufferView": 0,
            "byteOffset": 0,
            "componentType": 5126,
            "count": 25933,
            "type": "VEC3",
            "max": [
                0.9987050294876099,
                0.811968982219696,
                0.8585630059242249
            ],
            "min": [
                -0.9997180104255676,
                -0.8134210109710693,
                -0.8595679998397827
            ]
        },
        {
            "bufferView": 1,
            "byteOffset": 0,
            "componentType": 5126,
            "count": 25933,
            "type": "VEC3",
            "max": [
                0.9999849796295166,
                0.99986732006073,
                0.9999986886978149
            ],
            "min": [
                -0.999700129032135,
                -0.9999842643737793,
                -0.9979603886604309
            ]
        },
        {
            "bufferView": 2,
            "byteOffset": 0,
            "componentType": 5126,
            "count": 25933,
            "type": "VEC2",
            "max": [
                0.99951171875,
                0.99951171875
            ],
            "min": [
                0.0002970695495605469,
                0.1190185546875
            ]
        },
        {
            "bufferView": 3,
            "byteOffset": 0,
            "componentType": 5125,
            "count": 142830,
            "type": "SCALAR",
            "max": [
                25932
            ],
            "min": [
                0
            ]
        }
    ],
    "buffers": [
        {
            "byteLength": 1401176,
            "uri": "Florence_0.bin"
        }
    ],
    "bufferViews": [
        {
            "buffer": 0,
            "byteOffset": 0,
            "byteLength": 311196,
            "target": 34962
        },
        {
            "buffer": 0,
            "byteOffset": 311196,
            "byteLength": 311196,
            "target": 34962
        },
        {
            "buffer": 0,
            "byteOffset": 622392,
            "byteLength": 207464,
            "target": 34962
        },
        {
            "buffer": 0,
            "byteOffset": 829856,
            "byteLength": 571320,
            "target": 34963
        }
    ],
    "images": [
        {
            "uri": "textures/image_0.png"
        }
    ],
    "materials": [
        {
            "name": "Mat_1",
            "pbrMetallicRoughness": {
                "baseColorTexture": {
                    "index": 0
                },
                "metallicFactor": 0.0,
                "roughnessFactor": 0.800000011920929
            },
            "doubleSided": true
        }
    ],
    "meshes": [
        {
            "name": "meshes[0]",
            "primitives": [
                {
                    "mode": 4,
                    "material": 0,
                    "indices": 3,
                    "attributes": {
                        "POSITION": 0,
                        "NORMAL": 1,
                        "TEXCOORD_0": 2
                    }
                }
            ]
        }
    ],
    "nodes": [
        {
            "name": "Florence",
            "children": [
                1
            ]
        },
        {
            "name": "mesh_0",
            "mesh": 0
        }
    ],
    "samplers": [
        {
            "magFilter": 9729,
            "minFilter": 9987
        }
    ],
    "scenes": [
        {
            "nodes": [
                0
            ]
        }
    ],
    "textures": [
        {
            "source": 0,
            "sampler": 0
        }
    ],
    "scene": 0
}