{
    "asset": {
        "version": "2.0",
        "generator": "Open Asset Import Library (assimp v5.2.cf7d3637)"
    },
    "extensionsUsed": [
        "KHR_materials_volume",
        "FB_ngon_encoding"
    ],
    "accessors": [
        {
            "bufferView": 0,
            "byteOffset": 0,
            "componentType": 5126,
            "count": 179271,
            "type": "VEC3",
            "max": [
                1.0018889904022217,
                0.2282020002603531,
                0.3193089962005615
            ],
            "min": [
                -1.0008260011672974,
                -0.22804300487041474,
                -0.3209330141544342
            ]
        },
        {
            "bufferView": 1,
            "byteOffset": 0,
            "componentType": 5126,
            "count": 179271,
            "type": "VEC3",
            "max": [
                0.999907374382019,
                0.9999890327453613,
                0.999996542930603
            ],
            "min": [
                -0.9984933733940125,
                -0.9999932050704956,
                -0.9999493360519409
            ]
        },
        {
            "bufferView": 2,
            "byteOffset": 0,
            "componentType": 5126,
            "count": 179271,
            "type": "VEC2",
            "max": [
                0.94677734375,
                0.9990234375
            ],
            "min": [
                0.0007491111755371094,
                0.0007491111755371094
            ]
        },
        {
            "bufferView": 3,
            "byteOffset": 0,
            "componentType": 5125,
            "count": 179271,
            "type": "SCALAR",
            "max": [
                179270
            ],
            "min": [
                0
            ]
        }
    ],
    "buffers": [
        {
            "byteLength": 6453756,
            "uri": "result.bin"
        }
    ],
    "bufferViews": [
        {
            "buffer": 0,
            "byteOffset": 0,
            "byteLength": 2151252,
            "target": 34962
        },
        {
            "buffer": 0,
            "byteOffset": 2151252,
            "byteLength": 2151252,
            "target": 34962
        },
        {
            "buffer": 0,
            "byteOffset": 4302504,
            "byteLength": 1434168,
            "target": 34962
        },
        {
            "buffer": 0,
            "byteOffset": 5736672,
            "byteLength": 717084,
            "target": 34963
        }
    ],
    "images": [
        {
            "uri": "data:image/jpeg;base64,"
        }
    ],
    "materials": [
        {
            "name": "material",
            "pbrMetallicRoughness": {
                "baseColorTexture": {
                    "index": 0
                },
                "metallicFactor": 0.0,
                "roughnessFactor": 0.800000011920929
            },
            "doubleSided": true
        },
        {
            "name": "material"
        }
    ],
    "meshes": [
        {
            "name": "meshes[0]",
            "primitives": [
                {
                    "mode": 4,
                    "material": 0,
                    "indices": 3,
                    "attributes": {
                        "POSITION": 0,
                        "NORMAL": 1,
                        "TEXCOORD_0": 2
                    }
                }
            ]
        }
    ],
    "nodes": [
        {
            "name": "nodes[0]",
            "mesh": 0
        }
    ],
    "samplers": [
        {
            "magFilter": 9729,
            "minFilter": 9987
        }
    ],
    "scenes": [
        {
            "nodes": [
                0
            ]
        }
    ],
    "textures": [
        {
            "source": 0,
            "sampler": 0
        }
    ],
    "scene": 0
}