{
    "asset": {
        "version": "2.0",
        "generator": "Open Asset Import Library (assimp v5.2.cf7d3637)"
    },
    "extensionsUsed": [
        "KHR_materials_volume",
        "FB_ngon_encoding"
    ],
    "accessors": [
        {
            "bufferView": 0,
            "byteOffset": 0,
            "componentType": 5126,
            "count": 165798,
            "type": "VEC3",
            "max": [
                0.9993199706077576,
                0.23671099543571473,
                0.27427199482917788
            ],
            "min": [
                -0.9999449849128723,
                -0.23516300320625306,
                -0.2738099992275238
            ]
        },
        {
            "bufferView": 1,
            "byteOffset": 0,
            "componentType": 5126,
            "count": 165798,
            "type": "VEC3",
            "max": [
                0.9989078640937805,
                0.999997615814209,
                0.9999935626983643
            ],
            "min": [
                -0.999197244644165,
                -0.9999966621398926,
                -0.999945878982544
            ]
        },
        {
            "bufferView": 2,
            "byteOffset": 0,
            "componentType": 5126,
            "count": 165798,
            "type": "VEC2",
            "max": [
                0.99951171875,
                0.99951171875
            ],
            "min": [
                0.0004029273986816406,
                0.07073974609375
            ]
        },
        {
            "bufferView": 3,
            "byteOffset": 0,
            "componentType": 5125,
            "count": 165798,
            "type": "SCALAR",
            "max": [
                165797
            ],
            "min": [
                0
            ]
        }
    ],
    "buffers": [
        {
            "byteLength": 5968728,
            "uri": "result.bin"
        }
    ],
    "bufferViews": [
        {
            "buffer": 0,
            "byteOffset": 0,
            "byteLength": 1989576,
            "target": 34962
        },
        {
            "buffer": 0,
            "byteOffset": 1989576,
            "byteLength": 1989576,
            "target": 34962
        },
        {
            "buffer": 0,
            "byteOffset": 3979152,
            "byteLength": 1326384,
            "target": 34962
        },
        {
            "buffer": 0,
            "byteOffset": 5305536,
            "byteLength": 663192,
            "target": 34963
        }
    ],
    "images": [
        {
            "uri": "data:image/jpeg;base64,"
        }
    ],
    "materials": [
        {
            "name": "material",
            "pbrMetallicRoughness": {
                "baseColorTexture": {
                    "index": 0
                },
                "metallicFactor": 0.0,
                "roughnessFactor": 0.800000011920929
            },
            "doubleSided": true
        },
        {
            "name": "material"
        }
    ],
    "meshes": [
        {
            "name": "meshes[0]",
            "primitives": [
                {
                    "mode": 4,
                    "material": 0,
                    "indices": 3,
                    "attributes": {
                        "POSITION": 0,
                        "NORMAL": 1,
                        "TEXCOORD_0": 2
                    }
                }
            ]
        }
    ],
    "nodes": [
        {
            "name": "nodes[0]",
            "mesh": 0
        }
    ],
    "samplers": [
        {
            "magFilter": 9729,
            "minFilter": 9987
        }
    ],
    "scenes": [
        {
            "nodes": [
                0
            ]
        }
    ],
    "textures": [
        {
            "source": 0,
            "sampler": 0
        }
    ],
    "scene": 0
}