{
    "asset": {
        "version": "2.0",
        "generator": "Open Asset Import Library (assimp v5.2.cf7d3637)"
    },
    "extensionsUsed": [
        "KHR_materials_volume",
        "FB_ngon_encoding"
    ],
    "accessors": [
        {
            "bufferView": 0,
            "byteOffset": 0,
            "componentType": 5126,
            "count": 156492,
            "type": "VEC3",
            "max": [
                0.8108900189399719,
                0.4879390001296997,
                0.9980199933052063
            ],
            "min": [
                -0.8437590003013611,
                -0.4876599907875061,
                -0.9972000122070313
            ]
        },
        {
            "bufferView": 1,
            "byteOffset": 0,
            "componentType": 5126,
            "count": 156492,
            "type": "VEC3",
            "max": [
                0.9999943971633911,
                0.9998195767402649,
                0.9999212026596069
            ],
            "min": [
                -0.9999844431877136,
                -0.9999256134033203,
                -0.9995527267456055
            ]
        },
        {
            "bufferView": 2,
            "byteOffset": 0,
            "componentType": 5126,
            "count": 156492,
            "type": "VEC2",
            "max": [
                0.99951171875,
                0.99951171875
            ],
            "min": [
                0.0006108283996582031,
                0.047271728515625
            ]
        },
        {
            "bufferView": 3,
            "byteOffset": 0,
            "componentType": 5125,
            "count": 156492,
            "type": "SCALAR",
            "max": [
                156491
            ],
            "min": [
                0
            ]
        }
    ],
    "buffers": [
        {
            "byteLength": 5633712,
            "uri": "result.bin"
        }
    ],
    "bufferViews": [
        {
            "buffer": 0,
            "byteOffset": 0,
            "byteLength": 1877904,
            "target": 34962
        },
        {
            "buffer": 0,
            "byteOffset": 1877904,
            "byteLength": 1877904,
            "target": 34962
        },
        {
            "buffer": 0,
            "byteOffset": 3755808,
            "byteLength": 1251936,
            "target": 34962
        },
        {
            "buffer": 0,
            "byteOffset": 5007744,
            "byteLength": 625968,
            "target": 34963
        }
    ],
    "images": [
        {
            "uri": "data:image/jpeg;base64,"
        }
    ],
    "materials": [
        {
            "name": "material",
            "pbrMetallicRoughness": {
                "baseColorTexture": {
                    "index": 0
                },
                "metallicFactor": 0.0,
                "roughnessFactor": 0.800000011920929
            },
            "doubleSided": true
        },
        {
            "name": "material"
        }
    ],
    "meshes": [
        {
            "name": "meshes[0]",
            "primitives": [
                {
                    "mode": 4,
                    "material": 0,
                    "indices": 3,
                    "attributes": {
                        "POSITION": 0,
                        "NORMAL": 1,
                        "TEXCOORD_0": 2
                    }
                }
            ]
        }
    ],
    "nodes": [
        {
            "name": "nodes[0]",
            "mesh": 0
        }
    ],
    "samplers": [
        {
            "magFilter": 9729,
            "minFilter": 9987
        }
    ],
    "scenes": [
        {
            "nodes": [
                0
            ]
        }
    ],
    "textures": [
        {
            "source": 0,
            "sampler": 0
        }
    ],
    "scene": 0
}