{
    "asset": {
        "version": "2.0",
        "generator": "Open Asset Import Library (assimp v5.2.cf7d3637)"
    },
    "extensionsUsed": [
        "KHR_materials_volume",
        "FB_ngon_encoding"
    ],
    "accessors": [
        {
            "bufferView": 0,
            "byteOffset": 0,
            "componentType": 5126,
            "count": 164229,
            "type": "VEC3",
            "max": [
                0.999705970287323,
                0.18400999903678895,
                0.14363400638103486
            ],
            "min": [
                -0.9904360175132752,
                -0.18407399952411652,
                -0.15084600448608399
            ]
        },
        {
            "bufferView": 1,
            "byteOffset": 0,
            "componentType": 5126,
            "count": 164229,
            "type": "VEC3",
            "max": [
                0.9996289610862732,
                0.999967098236084,
                0.999886691570282
            ],
            "min": [
                -0.99989914894104,
                -0.9999991655349731,
                -0.9999994039535523
            ]
        },
        {
            "bufferView": 2,
            "byteOffset": 0,
            "componentType": 5126,
            "count": 164229,
            "type": "VEC2",
            "max": [
                0.998046875,
                0.99853515625
            ],
            "min": [
                0.001300811767578125,
                0.001300811767578125
            ]
        },
        {
            "bufferView": 3,
            "byteOffset": 0,
            "componentType": 5125,
            "count": 164229,
            "type": "SCALAR",
            "max": [
                164228
            ],
            "min": [
                0
            ]
        }
    ],
    "buffers": [
        {
            "byteLength": 5912244,
            "uri": "result.bin"
        }
    ],
    "bufferViews": [
        {
            "buffer": 0,
            "byteOffset": 0,
            "byteLength": 1970748,
            "target": 34962
        },
        {
            "buffer": 0,
            "byteOffset": 1970748,
            "byteLength": 1970748,
            "target": 34962
        },
        {
            "buffer": 0,
            "byteOffset": 3941496,
            "byteLength": 1313832,
            "target": 34962
        },
        {
            "buffer": 0,
            "byteOffset": 5255328,
            "byteLength": 656916,
            "target": 34963
        }
    ],
    "images": [
        {
            "uri": "data:image/jpeg;base64,"
        }
    ],
    "materials": [
        {
            "name": "material",
            "pbrMetallicRoughness": {
                "baseColorTexture": {
                    "index": 0
                },
                "metallicFactor": 0.0,
                "roughnessFactor": 0.800000011920929
            },
            "doubleSided": true
        },
        {
            "name": "material"
        }
    ],
    "meshes": [
        {
            "name": "meshes[0]",
            "primitives": [
                {
                    "mode": 4,
                    "material": 0,
                    "indices": 3,
                    "attributes": {
                        "POSITION": 0,
                        "NORMAL": 1,
                        "TEXCOORD_0": 2
                    }
                }
            ]
        }
    ],
    "nodes": [
        {
            "name": "nodes[0]",
            "mesh": 0
        }
    ],
    "samplers": [
        {
            "magFilter": 9729,
            "minFilter": 9987
        }
    ],
    "scenes": [
        {
            "nodes": [
                0
            ]
        }
    ],
    "textures": [
        {
            "source": 0,
            "sampler": 0
        }
    ],
    "scene": 0
}